<svg width="15" height="13" viewBox="0 0 15 13" fill="none" xmlns="http://www.w3.org/2000/svg">
<g clip-path="url(#clip0_68_4324)">
<path d="M7.61561 0.457031C7.48679 0.177734 7.21457 0 6.91561 0C6.61665 0 6.34686 0.177734 6.21561 0.457031L4.65276 3.81621L1.16248 4.35449C0.870816 4.4002 0.627761 4.61348 0.53783 4.90547C0.4479 5.19746 0.520816 5.51992 0.729844 5.73574L3.26248 8.35351L2.66457 12.0529C2.61596 12.3576 2.73748 12.6674 2.97811 12.8477C3.21873 13.0279 3.53714 13.0508 3.79964 12.9061L6.91804 11.1668L10.0364 12.9061C10.2989 13.0508 10.6173 13.0305 10.858 12.8477C11.0986 12.6648 11.2201 12.3576 11.1715 12.0529L10.5712 8.35351L13.1038 5.73574C13.3128 5.51992 13.3882 5.19746 13.2958 4.90547C13.2035 4.61348 12.9628 4.4002 12.6712 4.35449L9.17846 3.81621L7.61561 0.457031Z" fill="black"/>
</g>
<defs>
<clipPath id="clip0_68_4324">
<rect width="14" height="13" fill="white" transform="translate(0.5)"/>
</clipPath>
</defs>
</svg>
